<svg width="117" height="146" viewBox="0 0 117 146" fill="none" xmlns="http://www.w3.org/2000/svg">
<path d="M59.5034 0.999977C79.1923 26.1448 94.3083 45.7039 91.1206 69.7775C88.7584 87.6167 80.7139 103.847 69.8737 117.637C64.0276 125.073 56.5027 131.325 49.7695 138.16C48.4337 139.516 48.7697 140.362 46.2667 139.944" stroke="#FD7077" stroke-width="2" stroke-linecap="round"/>
<path d="M47 140C47.6923 139.941 47.4547 139.133 47.5 138.813C48.0968 134.601 49.4344 130.451 50.4048 126.276C51.1968 122.869 51.7737 119.35 53 116" stroke="#FD7077" stroke-width="2" stroke-linecap="round"/>
<path d="M48 140C48.853 139.937 49.6942 139.469 50.4138 139.158C55.4013 137.002 60.3886 134.847 65.4425 132.795C69.5786 131.116 73.8844 129.675 78 128" stroke="#FD7077" stroke-width="2" stroke-linecap="round"/>
</svg>
