<svg width="3414" height="3967" viewBox="0 0 3414 3967" fill="none" xmlns="http://www.w3.org/2000/svg">
<path fill-rule="evenodd" clip-rule="evenodd" d="M681.473 1316.16L707.73 1448.6C733.986 1581.05 788.051 1844.85 975.658 2013.93C1161.71 2184.11 1484.41 2257.37 1682.89 2418.74C1881.37 2580.12 1955.62 2829.59 2098.19 3030.61C2240.77 3231.63 2451.67 3384.19 2555.57 3461.57L2661.02 3537.85L2056.97 3966.28L1985.68 3865.77C1914.4 3765.26 1771.82 3564.24 1629.24 3363.22C1486.67 3162.2 1344.09 2961.18 1201.52 2760.16C1058.94 2559.14 916.367 2358.13 773.792 2157.11C631.216 1956.09 488.641 1755.07 417.353 1654.56L346.065 1554.05L681.473 1316.16Z" fill="#FFC85C" fill-opacity="0.3"/>
<path fill-rule="evenodd" clip-rule="evenodd" d="M2638.13 2338.65L2604.85 2216.22C2571.58 2093.8 2503.58 1850.2 2312.04 1714.02C2121.92 1576.59 1805.38 1549.07 1603.78 1421.63C1402.17 1294.19 1315.5 1066.83 1165.62 894.423C1015.73 722.018 802.634 604.571 697.521 544.598L590.972 485.874L1149.85 -5.24901e-05L1224.79 86.2023C1299.73 172.405 1449.62 344.809 1599.5 517.214C1749.39 689.619 1899.27 862.024 2049.16 1034.43C2199.04 1206.83 2348.92 1379.24 2498.81 1551.64C2648.69 1724.05 2798.58 1896.45 2873.52 1982.65L2948.46 2068.86L2638.13 2338.65Z" fill="#97FFFF" fill-opacity="0.3"/>
<path fill-rule="evenodd" clip-rule="evenodd" d="M635.146 188.652L653.695 324.098C672.244 459.543 710.962 729.435 889.103 913.5C1065.62 1098.56 1384.8 1195.8 1574.29 1372.88C1763.78 1549.96 1823.58 1806.88 1954.7 2019.89C2085.83 2232.89 2288.29 2401.99 2387.89 2487.53L2489.12 2572.08L1858.48 2960.3L1792.92 2853.8C1727.36 2747.29 1596.23 2534.29 1465.11 2321.28C1333.98 2108.27 1202.85 1895.27 1071.73 1682.26C940.601 1469.25 809.475 1256.25 678.349 1043.24C547.223 830.232 416.097 617.225 350.534 510.722L284.971 404.219L635.146 188.652Z" fill="#FFB0E9" fill-opacity="0.3"/>
<path fill-rule="evenodd" clip-rule="evenodd" d="M1982.33 587.363L1867.83 662.05C1753.32 736.736 1525.91 887.148 1435.7 1126.89C1343.89 1365.59 1392.48 1695.7 1313.43 1942.71C1234.39 2189.73 1027.72 2353.64 891.24 2563.26C754.762 2772.88 688.483 3028.2 653.747 3154.82L620.607 3282.48L-0.000231275 2878.42L68.2383 2773.61C136.477 2668.8 272.954 2459.19 409.431 2249.57C545.908 2039.95 682.385 1830.33 818.863 1620.71C955.34 1411.09 1091.82 1201.47 1228.29 991.856C1364.77 782.237 1501.25 572.619 1569.49 467.809L1637.73 363L1982.33 587.363Z" fill="#C8FF82" fill-opacity="0.3"/>
<path fill-rule="evenodd" clip-rule="evenodd" d="M493.4 2380.45L590.358 2476.83C687.315 2573.21 881.913 2764.18 1135.21 2802.33C1387.82 2842.24 1700.5 2725.77 1958.58 2751.47C2216.65 2777.17 2420.12 2945.05 2653.62 3034.73C2887.13 3124.4 3150.66 3135.89 3281.75 3143.41L3413.51 3149.15L3148.01 3840.47L3031.25 3795.63C2914.5 3750.79 2681 3661.11 2447.5 3571.43C2213.99 3481.75 1980.49 3392.07 1746.99 3302.4C1513.49 3212.72 1279.98 3123.04 1046.48 3033.36C812.977 2943.68 579.474 2854 462.722 2809.16L345.971 2764.32L493.4 2380.45Z" fill="#6AFFF6" fill-opacity="0.3"/>
</svg>
